# xmcd CD database file
#
# Track frame offsets:
#	150
#	8571
#	17235
#	27500
#	36664
#	48063
#	62796
#	75868
#	85173
#	93961
#	102380
#	111935
#	122699
#	132384
#	141463
#	150323
#	159555
#	168575
#	177151
#	185921
#	196142
#	206191
#	214541
#	223607
#	231262
#	240798
#	249724
#	259395
#	268703
#	277305
#
# Disc length: 3970 seconds
#
# Revision: 0
# Processed by: cddbd v1.5.2PL0 Copyright (c) Steve Scherf et al.
# Submitted via: CDex 1.70beta2
#
DISCID=b30f801e
DTITLE=Various Artist - Merengue Dominicano
DYEAR=2007
DGENRE=Merengue
TTITLE0=Andy Pena - El Burro
TTITLE1=Roberto Vargas - El Moñoñón
TTITLE2=Roberto Vargas - El Baile Del Pato
TTITLE3=La Banda Chula - El Viejo Beso
TTITLE4=Oro Sólido - La Tanga
TTITLE5=Oro Sólido - Abusadora
TTITLE6=Oro Sólido - La Morena
TTITLE7=Sancocho and Fulanito - La Otra
TTITLE8=Oro Sólido - La Leche
TTITLE9=Oro Sólido - Ta Encendido
TTITLE10=Sancocho - Mujeres Dinero
TTITLE11=Limi-T 21 - Estás Enamorada
TTITLE12=Sancocho - Se Parece A Ti
TTITLE13=La Mákina - Can Can
TTITLE14=La Mákina - Están Bailando
TTITLE15=Los Hermanos Rosario - Dueña Del Swing
TTITLE16=Sancocho - Dubbing La Otra
TTITLE17=Frenesí De Merengue - La Gran Manzana
TTITLE18=Los Diamantes Del Merengue - Mira Mira
TTITLE19=Alex Bueno - Jamás Podré Olvidar
TTITLE20=Los Hermanos Rosario - Loquito Por Ti
TTITLE21=Rikarena - Parapampam
TTITLE22=La Mákina - Me Rompió El Corazón
TTITLE23=K-Libre - Cuando Se Acaba El Amor
TTITLE24=K-Libre - Mi Novia
TTITLE25=K-Libre - La Quiero Y La Quiero
TTITLE26=K-Libre - Dime Que Me Quieres
TTITLE27=Rikarena - Ella Es Tan Bella
TTITLE28=Eddy Herrera - Nuestro Amor
TTITLE29=Eddy Herrera - Me Sabe A Poco
EXTD=YEAR: 2007
EXTT0=
EXTT1=
EXTT2=
EXTT3=
EXTT4=
EXTT5=
EXTT6=
EXTT7=
EXTT8=
EXTT9=
EXTT10=
EXTT11=
EXTT12=
EXTT13=
EXTT14=
EXTT15=
EXTT16=
EXTT17=
EXTT18=
EXTT19=
EXTT20=
EXTT21=
EXTT22=
EXTT23=
EXTT24=
EXTT25=
EXTT26=
EXTT27=
EXTT28=
EXTT29=
PLAYORDER=
